<svg xmlns="http://www.w3.org/2000/svg" xmlns:xlink="http://www.w3.org/1999/xlink" contentStyleType="text/css" data-diagram-type="SEQUENCE" height="444px" preserveAspectRatio="none" style="width:778px;height:444px;background:#FFFFFF;" version="1.1" viewBox="0 0 778 444" width="778px" zoomAndPan="magnify"><defs/><g><g><title>User</title><rect fill="#000000" fill-opacity="0.00000" height="282.1953" width="8" x="19.9551" y="81.2969"/><line style="stroke:#181818;stroke-width:0.5;stroke-dasharray:5.0,5.0;" x1="23" x2="23" y1="81.2969" y2="363.4922"/></g><g><title>WebServer</title><rect fill="#000000" fill-opacity="0.00000" height="282.1953" width="8" x="133.4634" y="81.2969"/><line style="stroke:#181818;stroke-width:0.5;stroke-dasharray:5.0,5.0;" x1="136.8369" x2="136.8369" y1="81.2969" y2="363.4922"/></g><g><title>Database</title><rect fill="#000000" fill-opacity="0.00000" height="282.1953" width="8" x="257.7944" y="81.2969"/><line style="stroke:#181818;stroke-width:0.5;stroke-dasharray:5.0,5.0;" x1="261.394" x2="261.394" y1="81.2969" y2="363.4922"/></g><g><title>AsynchronousWorker</title><rect fill="#000000" fill-opacity="0.00000" height="282.1953" width="8" x="438.2705" y="81.2969"/><line style="stroke:#181818;stroke-width:0.5;stroke-dasharray:5.0,5.0;" x1="441.687" x2="441.687" y1="81.2969" y2="363.4922"/></g><g><title>ImageProcessingService</title><rect fill="#000000" fill-opacity="0.00000" height="282.1953" width="8" x="676.0659" y="81.2969"/><line style="stroke:#181818;stroke-width:0.5;stroke-dasharray:5.0,5.0;" x1="679.6167" x2="679.6167" y1="81.2969" y2="363.4922"/></g><g class="participant participant-head" data-participant="User"><text fill="#000000" font-family="sans-serif" font-size="14" lengthAdjust="spacing" textLength="31.9102" x="5" y="77.9951">User</text><ellipse cx="23.9551" cy="13.5" fill="#E2E2F0" rx="8" ry="8" style="stroke:#181818;stroke-width:0.5;"/><path d="M23.9551,21.5 L23.9551,48.5 M10.9551,29.5 L36.9551,29.5 M23.9551,48.5 L10.9551,63.5 M23.9551,48.5 L36.9551,63.5 " fill="none" style="stroke:#181818;stroke-width:0.5;"/></g><g class="participant participant-tail" data-participant="User"><text fill="#000000" font-family="sans-serif" font-size="14" lengthAdjust="spacing" textLength="31.9102" x="5" y="375.4873">User</text><ellipse cx="23.9551" cy="387.2891" fill="#E2E2F0" rx="8" ry="8" style="stroke:#181818;stroke-width:0.5;"/><path d="M23.9551,395.2891 L23.9551,422.2891 M10.9551,403.2891 L36.9551,403.2891 M23.9551,422.2891 L10.9551,437.2891 M23.9551,422.2891 L36.9551,437.2891 " fill="none" style="stroke:#181818;stroke-width:0.5;"/></g><g class="participant participant-head" data-participant="WebServer"><rect fill="#E2E2F0" height="30.2969" rx="2.5" ry="2.5" style="stroke:#181818;stroke-width:0.5;" width="91.2529" x="91.8369" y="50"/><text fill="#000000" font-family="sans-serif" font-size="14" lengthAdjust="spacing" textLength="77.2529" x="98.8369" y="69.9951">WebServer</text></g><g class="participant participant-tail" data-participant="WebServer"><rect fill="#E2E2F0" height="30.2969" rx="2.5" ry="2.5" style="stroke:#181818;stroke-width:0.5;" width="91.2529" x="91.8369" y="362.4922"/><text fill="#000000" font-family="sans-serif" font-size="14" lengthAdjust="spacing" textLength="77.2529" x="98.8369" y="382.4873">WebServer</text></g><g class="participant participant-head" data-participant="Database"><rect fill="#E2E2F0" height="30.2969" rx="2.5" ry="2.5" style="stroke:#181818;stroke-width:0.5;" width="80.8008" x="221.394" y="50"/><text fill="#000000" font-family="sans-serif" font-size="14" lengthAdjust="spacing" textLength="66.8008" x="228.394" y="69.9951">Database</text></g><g class="participant participant-tail" data-participant="Database"><rect fill="#E2E2F0" height="30.2969" rx="2.5" ry="2.5" style="stroke:#181818;stroke-width:0.5;" width="80.8008" x="221.394" y="362.4922"/><text fill="#000000" font-family="sans-serif" font-size="14" lengthAdjust="spacing" textLength="66.8008" x="228.394" y="382.4873">Database</text></g><g class="participant participant-head" data-participant="AsynchronousWorker"><rect fill="#E2E2F0" height="30.2969" rx="2.5" ry="2.5" style="stroke:#181818;stroke-width:0.5;" width="163.167" x="360.687" y="50"/><text fill="#000000" font-family="sans-serif" font-size="14" lengthAdjust="spacing" textLength="149.167" x="367.687" y="69.9951">AsynchronousWorker</text></g><g class="participant participant-tail" data-participant="AsynchronousWorker"><rect fill="#E2E2F0" height="30.2969" rx="2.5" ry="2.5" style="stroke:#181818;stroke-width:0.5;" width="163.167" x="360.687" y="362.4922"/><text fill="#000000" font-family="sans-serif" font-size="14" lengthAdjust="spacing" textLength="149.167" x="367.687" y="382.4873">AsynchronousWorker</text></g><g class="participant participant-head" data-participant="ImageProcessingService"><rect fill="#E2E2F0" height="30.2969" rx="2.5" ry="2.5" style="stroke:#181818;stroke-width:0.5;" width="184.8984" x="587.6167" y="50"/><text fill="#000000" font-family="sans-serif" font-size="14" lengthAdjust="spacing" textLength="170.8984" x="594.6167" y="69.9951">ImageProcessingService</text></g><g class="participant participant-tail" data-participant="ImageProcessingService"><rect fill="#E2E2F0" height="30.2969" rx="2.5" ry="2.5" style="stroke:#181818;stroke-width:0.5;" width="184.8984" x="587.6167" y="362.4922"/><text fill="#000000" font-family="sans-serif" font-size="14" lengthAdjust="spacing" textLength="170.8984" x="594.6167" y="382.4873">ImageProcessingService</text></g><g class="message" data-participant-1="User" data-participant-2="WebServer"><polygon fill="#181818" points="125.4634,108.4297,135.4634,112.4297,125.4634,116.4297,129.4634,112.4297" style="stroke:#181818;stroke-width:1;"/><line style="stroke:#181818;stroke-width:1;" x1="23.9551" x2="131.4634" y1="112.4297" y2="112.4297"/><text fill="#000000" font-family="sans-serif" font-size="13" lengthAdjust="spacing" textLength="75.9053" x="30.9551" y="107.3638">Upload CSV</text></g><g class="message" data-participant-1="WebServer" data-participant-2="Database"><polygon fill="#181818" points="249.7944,137.5625,259.7944,141.5625,249.7944,145.5625,253.7944,141.5625" style="stroke:#181818;stroke-width:1;"/><line style="stroke:#181818;stroke-width:1;" x1="137.4634" x2="255.7944" y1="141.5625" y2="141.5625"/><text fill="#000000" font-family="sans-serif" font-size="13" lengthAdjust="spacing" textLength="92.168" x="144.4634" y="136.4966">Store Request</text></g><g class="message" data-participant-1="WebServer" data-participant-2="AsynchronousWorker"><polygon fill="#181818" points="430.2705,166.6953,440.2705,170.6953,430.2705,174.6953,434.2705,170.6953" style="stroke:#181818;stroke-width:1;"/><line style="stroke:#181818;stroke-width:1;" x1="137.4634" x2="436.2705" y1="170.6953" y2="170.6953"/><text fill="#000000" font-family="sans-serif" font-size="13" lengthAdjust="spacing" textLength="101.4482" x="144.4634" y="165.6294">Process Images</text></g><g class="message" data-participant-1="AsynchronousWorker" data-participant-2="ImageProcessingService"><polygon fill="#181818" points="668.0659,195.8281,678.0659,199.8281,668.0659,203.8281,672.0659,199.8281" style="stroke:#181818;stroke-width:1;"/><line style="stroke:#181818;stroke-width:1;" x1="442.2705" x2="674.0659" y1="199.8281" y2="199.8281"/><text fill="#000000" font-family="sans-serif" font-size="13" lengthAdjust="spacing" textLength="213.7954" x="449.2705" y="194.7622">Download and Compress Images</text></g><g class="message" data-participant-1="ImageProcessingService" data-participant-2="AsynchronousWorker"><polygon fill="#181818" points="453.2705,224.9609,443.2705,228.9609,453.2705,232.9609,449.2705,228.9609" style="stroke:#181818;stroke-width:1;"/><line style="stroke:#181818;stroke-width:1;" x1="447.2705" x2="679.0659" y1="228.9609" y2="228.9609"/><text fill="#000000" font-family="sans-serif" font-size="13" lengthAdjust="spacing" textLength="180.7876" x="459.2705" y="223.895">Return Compressed Images</text></g><g class="message" data-participant-1="AsynchronousWorker" data-participant-2="Database"><polygon fill="#181818" points="272.7944,254.0938,262.7944,258.0938,272.7944,262.0938,268.7944,258.0938" style="stroke:#181818;stroke-width:1;"/><line style="stroke:#181818;stroke-width:1;" x1="266.7944" x2="441.2705" y1="258.0938" y2="258.0938"/><text fill="#000000" font-family="sans-serif" font-size="13" lengthAdjust="spacing" textLength="156.4761" x="278.7944" y="253.0278">Store Processed Images</text></g><g class="message" data-participant-1="User" data-participant-2="WebServer"><polygon fill="#181818" points="125.4634,283.2266,135.4634,287.2266,125.4634,291.2266,129.4634,287.2266" style="stroke:#181818;stroke-width:1;"/><line style="stroke:#181818;stroke-width:1;" x1="23.9551" x2="131.4634" y1="287.2266" y2="287.2266"/><text fill="#000000" font-family="sans-serif" font-size="13" lengthAdjust="spacing" textLength="85.5474" x="30.9551" y="282.1606">Check Status</text></g><g class="message" data-participant-1="WebServer" data-participant-2="Database"><polygon fill="#181818" points="249.7944,312.3594,259.7944,316.3594,249.7944,320.3594,253.7944,316.3594" style="stroke:#181818;stroke-width:1;"/><line style="stroke:#181818;stroke-width:1;" x1="137.4634" x2="255.7944" y1="316.3594" y2="316.3594"/><text fill="#000000" font-family="sans-serif" font-size="13" lengthAdjust="spacing" textLength="100.3311" x="144.4634" y="311.2935">Retrieve Status</text></g><g class="message" data-participant-1="WebServer" data-participant-2="User"><polygon fill="#181818" points="34.9551,341.4922,24.9551,345.4922,34.9551,349.4922,30.9551,345.4922" style="stroke:#181818;stroke-width:1;"/><line style="stroke:#181818;stroke-width:1;" x1="28.9551" x2="136.4634" y1="345.4922" y2="345.4922"/><text fill="#000000" font-family="sans-serif" font-size="13" lengthAdjust="spacing" textLength="89.5083" x="40.9551" y="340.4263">Return Status</text></g><!--SRC=[VP1D3e8m44RtFKKlu0LOc1ZOk3CGP5tA10ZImPaMu-rjaU0VkEcYVTythwEqHP8v0maHJhdRomBA36W4YcG-N51LCixEOhaDIAAiAXL393EV1vd2rG7RJ-Z0TwCRGeEE2wGk59u8DJ3BOwzgOF6BXE3qE9EjgKDZg_si16zcyb76Es4_q5lLUcZB8mNho2mbKFqt-lxlFESLMzbTt83kFA-iuwtjUGrgOOHLB7Gkfa_W0G00]--></g></svg>